<svg class="main-svg" xmlns="http://www.w3.org/2000/svg" xmlns:xlink="http://www.w3.org/1999/xlink" width="800" height="400" style="" viewBox="0 0 800 400"><rect x="0" y="0" width="800" height="400" style="fill: rgb(255, 255, 255); fill-opacity: 1;"/><defs id="defs-12ccf8"><g class="clips"><clipPath id="clip12ccf8xyplot" class="plotclip"><rect width="332.55" height="302"/></clipPath><clipPath id="clip12ccf8x2y2plot" class="plotclip"><rect width="332.54999999999995" height="302"/></clipPath><clipPath class="axesclip" id="clip12ccf8x"><rect x="40" y="0" width="332.55" height="400"/></clipPath><clipPath class="axesclip" id="clip12ccf8y"><rect x="0" y="40" width="800" height="302"/></clipPath><clipPath class="axesclip" id="clip12ccf8xy"><rect x="40" y="40" width="332.55" height="302"/></clipPath><clipPath class="axesclip" id="clip12ccf8y2"><rect x="0" y="40" width="800" height="302"/></clipPath><clipPath class="axesclip" id="clip12ccf8xy2"><rect x="40" y="40" width="332.55" height="302"/></clipPath><clipPath class="axesclip" id="clip12ccf8x2"><rect x="446.45000000000005" y="0" width="332.54999999999995" height="400"/></clipPath><clipPath class="axesclip" id="clip12ccf8x2y"><rect x="446.45000000000005" y="40" width="332.54999999999995" height="302"/></clipPath><clipPath class="axesclip" id="clip12ccf8x2y2"><rect x="446.45000000000005" y="40" width="332.54999999999995" height="302"/></clipPath></g><g class="gradients"/><g class="patterns"/></defs><g class="bglayer"><rect class="bg" x="40" y="40" width="332.55" height="302" style="fill: rgb(0, 0, 0); fill-opacity: 0; stroke-width: 0;"/><rect class="bg" x="446.45000000000005" y="40" width="332.54999999999995" height="302" style="fill: rgb(0, 0, 0); fill-opacity: 0; stroke-width: 0;"/></g><g class="layer-below"><g class="imagelayer"/><g class="shapelayer"/></g><g class="cartesianlayer"><g class="subplot xy"><g class="layer-subplot"><g class="shapelayer"/><g class="imagelayer"/></g><g class="minor-gridlayer"><g class="x"/><g class="y"/></g><g class="gridlayer"><g class="x"><path class="xgrid crisp" transform="translate(55.12,0)" d="M0,40v302" style="stroke: rgb(0, 0, 0); stroke-opacity: 0.2; stroke-width: 1px;"/><path class="xgrid crisp" transform="translate(130.7,0)" d="M0,40v302" style="stroke: rgb(0, 0, 0); stroke-opacity: 0.2; stroke-width: 1px;"/><path class="xgrid crisp" transform="translate(206.28,0)" d="M0,40v302" style="stroke: rgb(0, 0, 0); stroke-opacity: 0.2; stroke-width: 1px;"/><path class="xgrid crisp" transform="translate(281.85,0)" d="M0,40v302" style="stroke: rgb(0, 0, 0); stroke-opacity: 0.2; stroke-width: 1px;"/><path class="xgrid crisp" transform="translate(357.43,0)" d="M0,40v302" style="stroke: rgb(0, 0, 0); stroke-opacity: 0.2; stroke-width: 1px;"/></g><g class="y"><path class="ygrid crisp" transform="translate(0,281.6)" d="M40,0h332.55" style="stroke: rgb(0, 0, 0); stroke-opacity: 0.2; stroke-width: 1px;"/><path class="ygrid crisp" transform="translate(0,221.2)" d="M40,0h332.55" style="stroke: rgb(0, 0, 0); stroke-opacity: 0.2; stroke-width: 1px;"/><path class="ygrid crisp" transform="translate(0,160.8)" d="M40,0h332.55" style="stroke: rgb(0, 0, 0); stroke-opacity: 0.2; stroke-width: 1px;"/><path class="ygrid crisp" transform="translate(0,100.4)" d="M40,0h332.55" style="stroke: rgb(0, 0, 0); stroke-opacity: 0.2; stroke-width: 1px;"/></g></g><g class="zerolinelayer"><path class="xzl zl crisp" transform="translate(40,0)" d="M0,40v302" style="stroke: rgb(0, 0, 0); stroke-opacity: 0.2; stroke-width: 2px;"/><path class="yzl zl crisp" transform="translate(0,342)" d="M40,0h332.55" style="stroke: rgb(0, 0, 0); stroke-opacity: 0.2; stroke-width: 2px;"/></g><path class="xlines-below"/><path class="ylines-below"/><g class="overlines-below"/><g class="xaxislayer-below"/><g class="yaxislayer-below"/><g class="overaxes-below"/><g class="plot" transform="translate(40,40)" clip-path="url(#clip12ccf8xyplot)"><g class="scatterlayer mlayer"><g class="trace scatter trace9a8962" style="stroke-miterlimit: 2; opacity: 1;"><g class="fills"/><g class="errorbars"/><g class="lines"><path class="js-line" d="M15.12,287.62L55.36,285.53L55.67,285.51L119.52,280.57L119.82,280.54L152.81,276.6L153.11,276.56L177.32,272.59L177.62,272.53L192.75,269.35L193.06,269.27L212.42,264L212.73,263.9L226.04,259.14L226.35,259.02L242.69,251.2L242.99,251.03L253.58,244.19L253.88,243.97L261.75,237.52L262.05,237.24L269.62,229.46L269.92,229.11L277.19,219.55L277.49,219.09L284.45,207.1L284.75,206.5L290.8,192.65L291.11,191.85L296.55,175.18L296.86,174.11L302,152.57L302.3,151.08L306.54,126.49L306.84,124.43L311.08,89.39L311.38,86.35L315.01,41.69L315.32,37.12L317.43,0" style="vector-effect: none; fill: none; stroke: rgb(0, 0, 255); stroke-opacity: 1; stroke-width: 2px; opacity: 1;"/></g><g class="points"/><g class="text"/></g></g></g><g class="overplot"/><path class="xlines-above crisp" d="M0,0" style="fill: none;"/><path class="ylines-above crisp" d="M0,0" style="fill: none;"/><g class="overlines-above"/><g class="xaxislayer-above"><g class="xtick"><text text-anchor="middle" x="0" y="357" transform="translate(55.12,0)" style="font-family: 'Open Sans', verdana, arial, sans-serif; font-size: 14px; fill: rgb(42, 63, 95); fill-opacity: 1; white-space: pre; opacity: 1;">Input</text></g><g class="xtick"><text text-anchor="middle" x="0" y="357" style="font-family: 'Open Sans', verdana, arial, sans-serif; font-size: 14px; fill: rgb(42, 63, 95); fill-opacity: 1; white-space: pre; opacity: 1;" transform="translate(130.7,0)">Layer 1</text></g><g class="xtick"><text text-anchor="middle" x="0" y="357" style="font-family: 'Open Sans', verdana, arial, sans-serif; font-size: 14px; fill: rgb(42, 63, 95); fill-opacity: 1; white-space: pre; opacity: 1;" transform="translate(206.28,0)">Layer 2</text></g><g class="xtick"><text text-anchor="middle" x="0" y="357" style="font-family: 'Open Sans', verdana, arial, sans-serif; font-size: 14px; fill: rgb(42, 63, 95); fill-opacity: 1; white-space: pre; opacity: 1;" transform="translate(281.85,0)">Layer 3</text></g><g class="xtick"><text text-anchor="middle" x="0" y="357" style="font-family: 'Open Sans', verdana, arial, sans-serif; font-size: 14px; fill: rgb(42, 63, 95); fill-opacity: 1; white-space: pre; opacity: 1;" transform="translate(357.43,0)">Output</text></g></g><g class="yaxislayer-above"/><g class="overaxes-above"/></g><g class="subplot x2y2"><g class="layer-subplot"><g class="shapelayer"/><g class="imagelayer"/></g><g class="minor-gridlayer"><g class="x2"/><g class="y2"/></g><g class="gridlayer"><g class="x2"><path class="x2grid crisp" transform="translate(461.57000000000005,0)" d="M0,40v302" style="stroke: rgb(0, 0, 0); stroke-opacity: 0.2; stroke-width: 1px;"/><path class="x2grid crisp" transform="translate(537.1500000000001,0)" d="M0,40v302" style="stroke: rgb(0, 0, 0); stroke-opacity: 0.2; stroke-width: 1px;"/><path class="x2grid crisp" transform="translate(612.72,0)" d="M0,40v302" style="stroke: rgb(0, 0, 0); stroke-opacity: 0.2; stroke-width: 1px;"/><path class="x2grid crisp" transform="translate(688.3000000000001,0)" d="M0,40v302" style="stroke: rgb(0, 0, 0); stroke-opacity: 0.2; stroke-width: 1px;"/><path class="x2grid crisp" transform="translate(763.8800000000001,0)" d="M0,40v302" style="stroke: rgb(0, 0, 0); stroke-opacity: 0.2; stroke-width: 1px;"/></g><g class="y2"><path class="y2grid crisp" transform="translate(0,281.6)" d="M446.45000000000005,0h332.54999999999995" style="stroke: rgb(0, 0, 0); stroke-opacity: 0.2; stroke-width: 1px;"/><path class="y2grid crisp" transform="translate(0,221.2)" d="M446.45000000000005,0h332.54999999999995" style="stroke: rgb(0, 0, 0); stroke-opacity: 0.2; stroke-width: 1px;"/><path class="y2grid crisp" transform="translate(0,160.8)" d="M446.45000000000005,0h332.54999999999995" style="stroke: rgb(0, 0, 0); stroke-opacity: 0.2; stroke-width: 1px;"/><path class="y2grid crisp" transform="translate(0,100.4)" d="M446.45000000000005,0h332.54999999999995" style="stroke: rgb(0, 0, 0); stroke-opacity: 0.2; stroke-width: 1px;"/></g></g><g class="zerolinelayer"><path class="x2zl zl crisp" transform="translate(446.45000000000005,0)" d="M0,40v302" style="stroke: rgb(0, 0, 0); stroke-opacity: 0.2; stroke-width: 2px;"/><path class="y2zl zl crisp" transform="translate(0,342)" d="M446.45000000000005,0h332.54999999999995" style="stroke: rgb(0, 0, 0); stroke-opacity: 0.2; stroke-width: 2px;"/></g><path class="xlines-below"/><path class="ylines-below"/><g class="overlines-below"/><g class="xaxislayer-below"/><g class="yaxislayer-below"/><g class="overaxes-below"/><g class="plot" transform="translate(446.45000000000005,40)" clip-path="url(#clip12ccf8x2y2plot)"><g class="scatterlayer mlayer"><g class="trace scatter tracecef675" style="stroke-miterlimit: 2; opacity: 1;"><g class="fills"/><g class="errorbars"/><g class="lines"><path class="js-line" d="M15.12,0L18.75,58.5L19.05,62.37L23.29,105.96L23.59,108.48L28.13,139.71L28.43,141.44L33.27,164.8L33.58,166.04L39.02,185.02L39.33,185.92L45.38,201.4L45.68,202.07L52.34,214.78L52.64,215.28L59.3,225.02L59.6,225.41L68.07,234.94L68.38,235.24L77.76,243.29L78.06,243.52L87.44,249.79L87.74,249.97L100.76,256.69L101.06,256.83L117.4,263.12L117.7,263.22L137.07,268.7L137.37,268.77L165.82,274.47L166.12,274.52L198.5,279L198.81,279.04L257.52,284.27L257.82,284.29L317.43,287.62" style="vector-effect: none; fill: none; stroke: rgb(255, 0, 0); stroke-opacity: 1; stroke-width: 2px; opacity: 1;"/></g><g class="points"/><g class="text"/></g></g></g><g class="overplot"/><path class="xlines-above crisp" d="M0,0" style="fill: none;"/><path class="ylines-above crisp" d="M0,0" style="fill: none;"/><g class="overlines-above"/><g class="xaxislayer-above"><g class="x2tick"><text text-anchor="middle" x="0" y="357" transform="translate(461.57000000000005,0)" style="font-family: 'Open Sans', verdana, arial, sans-serif; font-size: 14px; fill: rgb(42, 63, 95); fill-opacity: 1; white-space: pre; opacity: 1;">Input</text></g><g class="x2tick"><text text-anchor="middle" x="0" y="357" style="font-family: 'Open Sans', verdana, arial, sans-serif; font-size: 14px; fill: rgb(42, 63, 95); fill-opacity: 1; white-space: pre; opacity: 1;" transform="translate(537.1500000000001,0)">Layer 1</text></g><g class="x2tick"><text text-anchor="middle" x="0" y="357" style="font-family: 'Open Sans', verdana, arial, sans-serif; font-size: 14px; fill: rgb(42, 63, 95); fill-opacity: 1; white-space: pre; opacity: 1;" transform="translate(612.72,0)">Layer 2</text></g><g class="x2tick"><text text-anchor="middle" x="0" y="357" style="font-family: 'Open Sans', verdana, arial, sans-serif; font-size: 14px; fill: rgb(42, 63, 95); fill-opacity: 1; white-space: pre; opacity: 1;" transform="translate(688.3000000000001,0)">Layer 3</text></g><g class="x2tick"><text text-anchor="middle" x="0" y="357" style="font-family: 'Open Sans', verdana, arial, sans-serif; font-size: 14px; fill: rgb(42, 63, 95); fill-opacity: 1; white-space: pre; opacity: 1;" transform="translate(763.8800000000001,0)">Output</text></g></g><g class="yaxislayer-above"/><g class="overaxes-above"/></g></g><g class="polarlayer"/><g class="smithlayer"/><g class="ternarylayer"/><g class="geolayer"/><g class="funnelarealayer"/><g class="pielayer"/><g class="iciclelayer"/><g class="treemaplayer"/><g class="sunburstlayer"/><g class="glimages"/><defs id="topdefs-12ccf8"><g class="clips"/></defs><g class="layer-above"><g class="imagelayer"/><g class="shapelayer"/></g><g class="infolayer"><g class="g-gtitle"/><g class="g-xtitle"><text class="xtitle" x="206.275" y="387.1" text-anchor="middle" style="font-family: 'Open Sans', verdana, arial, sans-serif; font-size: 18px; fill: rgb(42, 63, 95); opacity: 1; font-weight: normal; white-space: pre;">Layer</text></g><g class="g-x2title"><text class="x2title" x="612.725" y="387.1" text-anchor="middle" style="font-family: 'Open Sans', verdana, arial, sans-serif; font-size: 18px; fill: rgb(42, 63, 95); opacity: 1; font-weight: normal; white-space: pre;">Layer</text></g><g class="g-ytitle" transform="translate(45.099609375,0)"><text class="ytitle" transform="rotate(-90,-27.099999999999994,191)" x="-27.099999999999994" y="191" text-anchor="middle" style="font-family: 'Open Sans', verdana, arial, sans-serif; font-size: 18px; fill: rgb(42, 63, 95); opacity: 1; font-weight: normal; white-space: pre;">Gradient</text></g><g class="g-y2title"/><g class="annotation" data-index="0" style="opacity: 1;"><g class="annotation-text-g" transform="rotate(0,202.58,18.450000000000017)"><g class="cursor-pointer" transform="translate(105,4)"><rect class="bg" x="0.5" y="0.5" width="194" height="27" style="stroke-width: 1px; stroke: rgb(0, 0, 0); stroke-opacity: 0; fill: rgb(0, 0, 0); fill-opacity: 0;"/><text class="annotation-text" text-anchor="middle" x="97.84375" y="22" style="font-family: 'Open Sans', verdana, arial, sans-serif; font-size: 20px; fill: rgb(42, 63, 95); fill-opacity: 1; white-space: pre;">Vanishing Gradient</text></g></g></g><g class="annotation" data-index="1" style="opacity: 1;"><g class="annotation-text-g" transform="rotate(0,609.03,18.450000000000017)"><g class="cursor-pointer" transform="translate(512,4)"><rect class="bg" x="0.5" y="0.5" width="194" height="27" style="stroke-width: 1px; stroke: rgb(0, 0, 0); stroke-opacity: 0; fill: rgb(0, 0, 0); fill-opacity: 0;"/><text class="annotation-text" text-anchor="middle" x="97.390625" y="22" style="font-family: 'Open Sans', verdana, arial, sans-serif; font-size: 20px; fill: rgb(42, 63, 95); fill-opacity: 1; white-space: pre;">Exploding Gradient</text></g></g></g></g></svg>