<svg class="main-svg" xmlns="http://www.w3.org/2000/svg" xmlns:xlink="http://www.w3.org/1999/xlink" width="800" height="500" style="" viewBox="0 0 800 500"><rect x="0" y="0" width="800" height="500" style="fill: rgb(255, 255, 255); fill-opacity: 1;"/><defs id="defs-704f63"><g class="clips"><clipPath id="clip704f63xyplot" class="plotclip"><rect width="730" height="460"/></clipPath><clipPath class="axesclip" id="clip704f63x"><rect x="50" y="0" width="730" height="500"/></clipPath><clipPath class="axesclip" id="clip704f63y"><rect x="0" y="20" width="800" height="460"/></clipPath><clipPath class="axesclip" id="clip704f63xy"><rect x="50" y="20" width="730" height="460"/></clipPath></g><g class="gradients"/><g class="patterns"/></defs><g class="bglayer"><rect class="bg" x="50" y="20" width="730" height="460" style="fill: rgb(0, 0, 0); fill-opacity: 0; stroke-width: 0;"/></g><g class="layer-below"><g class="imagelayer"/><g class="shapelayer"/></g><g class="cartesianlayer"><g class="subplot xy"><g class="layer-subplot"><g class="shapelayer"/><g class="imagelayer"/></g><g class="minor-gridlayer"><g class="x"/><g class="y"/></g><g class="gridlayer"><g class="x"><path class="xgrid crisp" transform="translate(208.7,0)" d="M0,20v460" style="stroke: rgb(0, 0, 0); stroke-opacity: 0.2; stroke-width: 1px;"/><path class="xgrid crisp" transform="translate(367.39,0)" d="M0,20v460" style="stroke: rgb(0, 0, 0); stroke-opacity: 0.2; stroke-width: 1px;"/><path class="xgrid crisp" transform="translate(526.0899999999999,0)" d="M0,20v460" style="stroke: rgb(0, 0, 0); stroke-opacity: 0.2; stroke-width: 1px;"/><path class="xgrid crisp" transform="translate(684.78,0)" d="M0,20v460" style="stroke: rgb(0, 0, 0); stroke-opacity: 0.2; stroke-width: 1px;"/></g><g class="y"><path class="ygrid crisp" transform="translate(0,457)" d="M50,0h730" style="stroke: rgb(0, 0, 0); stroke-opacity: 0.2; stroke-width: 1px;"/><path class="ygrid crisp" transform="translate(0,397.86)" d="M50,0h730" style="stroke: rgb(0, 0, 0); stroke-opacity: 0.2; stroke-width: 1px;"/><path class="ygrid crisp" transform="translate(0,338.71)" d="M50,0h730" style="stroke: rgb(0, 0, 0); stroke-opacity: 0.2; stroke-width: 1px;"/><path class="ygrid crisp" transform="translate(0,279.57)" d="M50,0h730" style="stroke: rgb(0, 0, 0); stroke-opacity: 0.2; stroke-width: 1px;"/><path class="ygrid crisp" transform="translate(0,220.43)" d="M50,0h730" style="stroke: rgb(0, 0, 0); stroke-opacity: 0.2; stroke-width: 1px;"/><path class="ygrid crisp" transform="translate(0,161.29)" d="M50,0h730" style="stroke: rgb(0, 0, 0); stroke-opacity: 0.2; stroke-width: 1px;"/><path class="ygrid crisp" transform="translate(0,102.14)" d="M50,0h730" style="stroke: rgb(0, 0, 0); stroke-opacity: 0.2; stroke-width: 1px;"/><path class="ygrid crisp" transform="translate(0,43)" d="M50,0h730" style="stroke: rgb(0, 0, 0); stroke-opacity: 0.2; stroke-width: 1px;"/></g></g><g class="zerolinelayer"><path class="yzl zl crisp" transform="translate(0,250)" d="M50,0h730" style="stroke: rgb(0, 0, 0); stroke-opacity: 0.2; stroke-width: 2px;"/></g><path class="xlines-below"/><path class="ylines-below"/><g class="overlines-below"/><g class="xaxislayer-below"/><g class="yaxislayer-below"/><g class="overaxes-below"/><g class="plot" transform="translate(50,20)" clip-path="url(#clip704f63xyplot)"><g class="scatterlayer mlayer"><g class="trace scatter tracea89e93" style="stroke-miterlimit: 2; opacity: 1;"><g class="fills"/><g class="errorbars"/><g class="lines"><path class="js-line" d="M-634.78,230L-556.93,91.06L-554.93,88.18L-517.01,44.29L-515.01,42.6L-485.07,25.5L-483.07,24.93L-459.11,23.83L-457.12,24.22L-433.16,34.5L-431.17,35.82L-405.22,59.05L-403.22,61.28L-371.28,104.57L-369.28,107.7L-327.36,181.63L-325.37,185.44L-235.54,352.3L-233.54,355.43L-207.59,391.67L-205.59,394.08L-183.64,416.56L-181.64,418.22L-161.68,431.04L-159.68,431.93L-143.71,436.48L-141.72,436.72L-127.74,436.33L-125.75,435.99L-111.77,431.5L-109.78,430.56L-95.8,422.07L-93.81,420.58L-77.84,406.27L-75.84,404.19L-59.87,385.39L-57.87,382.78L-39.91,356.98L-37.91,353.87L-17.95,320.57L-15.95,317.04L8,272.66L10,268.83L71.88,150.11L73.88,146.52L91.84,115.71L93.84,112.47L109.81,88.18L111.81,85.37L125.78,67.12L127.78,64.74L139.75,51.72L141.75,49.76L153.73,39.42L155.72,37.93L165.7,31.51L167.7,30.44L177.68,26.14L179.68,25.5L189.66,23.39L191.65,23.19L201.64,23.28L203.63,23.52L213.61,25.81L215.61,26.49L225.59,30.97L227.59,32.07L237.57,38.66L239.56,40.19L249.54,48.81L251.54,50.73L263.52,63.57L265.51,65.92L277.49,81.23L279.49,83.97L295.46,107.7L297.45,110.87L315.42,141.19L317.42,144.74L339.37,185.44L341.37,189.26L407.25,315.26L409.24,318.81L427.21,349.13L429.21,352.3L445.17,376.03L447.17,378.77L461.14,396.43L463.14,398.72L475.12,411.19L477.11,413.04L487.1,421.34L489.09,422.79L499.07,429.03L501.07,430.07L511.05,434.19L513.05,434.79L523.03,436.72L525.02,436.89L535.01,436.61L537,436.33L544.99,434.5L546.98,433.86L556.96,429.56L558.96,428.49L568.94,422.07L570.94,420.58L580.92,412.12L582.91,410.24L594.89,397.58L596.89,395.26L610.86,377.4L612.86,374.63L626.83,353.87L628.83,350.72L646.79,320.57L648.79,317.04L670.75,276.47L672.74,272.66L742.61,139.43L744.61,135.94L764.57,103.02L766.57,99.96L786.53,72.06L788.53,69.56L806.49,49.76L808.49,47.88L824.46,35.15L826.45,33.87L842.42,26.14L844.42,25.5L860.39,23L862.39,23.02L878.36,25.81L880.35,26.49L898.32,35.82L900.31,37.21L920.28,54.77L922.27,56.88L946.23,86.77L948.22,89.61L980.16,141.19L982.16,144.74L1046.04,266.91L1048.03,270.74L1101.93,364.55L1103.93,367.49L1139.86,411.19L1141.86,413.04L1169.8,431.93L1171.8,432.76L1197.75,436.81L1199.75,436.61L1225.7,427.35L1227.69,426.13L1257.64,399.84L1259.63,397.58L1297.56,344.29L1299.56,341.02L1359.45,230" style="vector-effect: none; fill: none; stroke: rgb(0, 0, 255); stroke-opacity: 1; stroke-width: 2px; opacity: 1;"/></g><g class="points"/><g class="text"/></g><g class="trace scatter trace6b8be7" style="stroke-miterlimit: 2; opacity: 1;"><g class="fills"/><g class="errorbars"/><g class="lines"><path class="js-line" d="M-634.78,200.43L-604.84,200.43L-602.84,141.29L-570.9,141.29L-568.91,82.14L-526.99,82.14L-524.99,23L-413.2,23L-411.21,82.14L-367.29,82.14L-365.29,141.29L-333.35,141.29L-331.36,200.43L-303.41,200.43L-301.41,259.57L-273.47,259.57L-271.47,318.71L-239.53,318.71L-237.53,377.86L-193.62,377.86L-191.62,437L-79.83,437L-77.84,377.86L-35.92,377.86L-33.92,318.71L-1.98,318.71L0.02,259.57L29.96,259.57L31.96,200.43L59.9,200.43L61.9,141.29L93.84,141.29L95.84,82.14L137.76,82.14L139.75,23L251.54,23L253.54,82.14L297.45,82.14L299.45,141.29L331.39,141.29L333.39,200.43L361.33,200.43L363.33,259.57L391.28,259.57L393.27,318.71L425.21,318.71L427.21,377.86L471.13,377.86L473.12,437L584.91,437L586.91,377.86L628.83,377.86L630.82,318.71L662.76,318.71L664.76,259.57L694.7,259.57L696.7,200.43L724.65,200.43L726.64,141.29L758.58,141.29L760.58,82.14L802.5,82.14L804.5,23L916.28,23L918.28,82.14L962.2,82.14L964.19,141.29L996.13,141.29L998.13,200.43L1026.08,200.43L1028.07,259.57L1056.02,259.57L1058.02,318.71L1089.96,318.71L1091.95,377.86L1135.87,377.86L1137.86,437L1249.65,437L1251.65,377.86L1293.57,377.86L1295.57,318.71L1327.51,318.71L1329.5,259.57L1359.45,259.57" style="vector-effect: none; fill: none; stroke: rgb(255, 0, 0); stroke-opacity: 1; stroke-width: 2px; opacity: 1;"/></g><g class="points"/><g class="text"/></g></g></g><g class="overplot"/><path class="xlines-above crisp" d="M0,0" style="fill: none;"/><path class="ylines-above crisp" d="M0,0" style="fill: none;"/><g class="overlines-above"/><g class="xaxislayer-above"/><g class="yaxislayer-above"><g class="ytick"><text text-anchor="end" x="49" y="4.199999999999999" transform="translate(0,457)" style="font-family: 'Open Sans', verdana, arial, sans-serif; font-size: 12px; fill: rgb(42, 63, 95); fill-opacity: 1; white-space: pre; opacity: 1;">000</text></g><g class="ytick"><text text-anchor="end" x="49" y="4.199999999999999" style="font-family: 'Open Sans', verdana, arial, sans-serif; font-size: 12px; fill: rgb(42, 63, 95); fill-opacity: 1; white-space: pre; opacity: 1;" transform="translate(0,397.86)">001</text></g><g class="ytick"><text text-anchor="end" x="49" y="4.199999999999999" style="font-family: 'Open Sans', verdana, arial, sans-serif; font-size: 12px; fill: rgb(42, 63, 95); fill-opacity: 1; white-space: pre; opacity: 1;" transform="translate(0,338.71)">010</text></g><g class="ytick"><text text-anchor="end" x="49" y="4.199999999999999" style="font-family: 'Open Sans', verdana, arial, sans-serif; font-size: 12px; fill: rgb(42, 63, 95); fill-opacity: 1; white-space: pre; opacity: 1;" transform="translate(0,279.57)">011</text></g><g class="ytick"><text text-anchor="end" x="49" y="4.199999999999999" style="font-family: 'Open Sans', verdana, arial, sans-serif; font-size: 12px; fill: rgb(42, 63, 95); fill-opacity: 1; white-space: pre; opacity: 1;" transform="translate(0,220.43)">100</text></g><g class="ytick"><text text-anchor="end" x="49" y="4.199999999999999" style="font-family: 'Open Sans', verdana, arial, sans-serif; font-size: 12px; fill: rgb(42, 63, 95); fill-opacity: 1; white-space: pre; opacity: 1;" transform="translate(0,161.29)">101</text></g><g class="ytick"><text text-anchor="end" x="49" y="4.199999999999999" style="font-family: 'Open Sans', verdana, arial, sans-serif; font-size: 12px; fill: rgb(42, 63, 95); fill-opacity: 1; white-space: pre; opacity: 1;" transform="translate(0,102.14)">110</text></g><g class="ytick"><text text-anchor="end" x="49" y="4.199999999999999" style="font-family: 'Open Sans', verdana, arial, sans-serif; font-size: 12px; fill: rgb(42, 63, 95); fill-opacity: 1; white-space: pre; opacity: 1;" transform="translate(0,43)">111</text></g></g><g class="overaxes-above"/></g></g><g class="polarlayer"/><g class="smithlayer"/><g class="ternarylayer"/><g class="geolayer"/><g class="funnelarealayer"/><g class="pielayer"/><g class="iciclelayer"/><g class="treemaplayer"/><g class="sunburstlayer"/><g class="glimages"/><defs id="topdefs-704f63"><g class="clips"/></defs><g class="layer-above"><g class="imagelayer"/><g class="shapelayer"/></g><g class="infolayer"><g class="g-gtitle"/><g class="g-xtitle"/><g class="g-ytitle"/></g></svg>