<svg class="main-svg" xmlns="http://www.w3.org/2000/svg" xmlns:xlink="http://www.w3.org/1999/xlink" width="500" height="500" style="" viewBox="0 0 500 500"><rect x="0" y="0" width="500" height="500" style="fill: rgb(255, 255, 255); fill-opacity: 1;"/><defs id="defs-ddcade"><g class="clips"><clipPath id="clipddcadexyplot" class="plotclip"><rect width="410" height="347"/></clipPath><clipPath class="axesclip" id="clipddcadex"><rect x="70" y="0" width="410" height="500"/></clipPath><clipPath class="axesclip" id="clipddcadey"><rect x="0" y="20" width="500" height="347"/></clipPath><clipPath class="axesclip" id="clipddcadexy"><rect x="70" y="20" width="410" height="347"/></clipPath></g><g class="gradients"/><g class="patterns"/></defs><g class="bglayer"><rect class="bg" x="70" y="20" width="410" height="347" style="fill: rgb(0, 0, 0); fill-opacity: 0; stroke-width: 0;"/></g><g class="layer-below"><g class="imagelayer"/><g class="shapelayer"/></g><g class="cartesianlayer"><g class="subplot xy"><g class="layer-subplot"><g class="shapelayer"/><g class="imagelayer"/></g><g class="minor-gridlayer"><g class="x"/><g class="y"/></g><g class="gridlayer"><g class="x"><path class="xgrid crisp" transform="translate(152,0)" d="M0,20v347" style="stroke: rgb(0, 0, 0); stroke-opacity: 0.2; stroke-width: 1px;"/><path class="xgrid crisp" transform="translate(234,0)" d="M0,20v347" style="stroke: rgb(0, 0, 0); stroke-opacity: 0.2; stroke-width: 1px;"/><path class="xgrid crisp" transform="translate(316,0)" d="M0,20v347" style="stroke: rgb(0, 0, 0); stroke-opacity: 0.2; stroke-width: 1px;"/><path class="xgrid crisp" transform="translate(398,0)" d="M0,20v347" style="stroke: rgb(0, 0, 0); stroke-opacity: 0.2; stroke-width: 1px;"/></g><g class="y"><path class="ygrid crisp" transform="translate(0,297.6)" d="M70,0h410" style="stroke: rgb(0, 0, 0); stroke-opacity: 0.2; stroke-width: 1px;"/><path class="ygrid crisp" transform="translate(0,228.2)" d="M70,0h410" style="stroke: rgb(0, 0, 0); stroke-opacity: 0.2; stroke-width: 1px;"/><path class="ygrid crisp" transform="translate(0,158.8)" d="M70,0h410" style="stroke: rgb(0, 0, 0); stroke-opacity: 0.2; stroke-width: 1px;"/><path class="ygrid crisp" transform="translate(0,89.4)" d="M70,0h410" style="stroke: rgb(0, 0, 0); stroke-opacity: 0.2; stroke-width: 1px;"/></g></g><g class="zerolinelayer"><path class="xzl zl crisp" transform="translate(70,0)" d="M0,20v347" style="stroke: rgb(0, 0, 0); stroke-opacity: 0.2; stroke-width: 2px;"/><path class="yzl zl crisp" transform="translate(0,367)" d="M70,0h410" style="stroke: rgb(0, 0, 0); stroke-opacity: 0.2; stroke-width: 2px;"/></g><path class="xlines-below"/><path class="ylines-below"/><g class="overlines-below"/><g class="xaxislayer-below"/><g class="yaxislayer-below"/><g class="overaxes-below"/><g class="plot" transform="translate(70,20)" clip-path="url(#clipddcadexyplot)"><g class="scatterlayer mlayer"><g class="trace scatter trace401827" style="stroke-miterlimit: 2; opacity: 1;"><g class="fills"/><g class="errorbars"/><g class="lines"><path class="js-line" d="M0,347L410,0" style="vector-effect: none; fill: none; stroke: rgb(255, 165, 0); stroke-opacity: 1; stroke-width: 2px; opacity: 1;"/></g><g class="points"/><g class="text"/></g><g class="trace scatter traceed98d2" style="stroke-miterlimit: 2; opacity: 1;"><g class="fills"/><g class="errorbars"/><g class="lines"><path class="js-line" d="M0,347L1.16,332.84L1.16,332.84L1.16,332.61L6.52,274.7L6.53,274.7L7.96,260.98L7.97,260.98L8.57,256.22L8.57,256.04L19.17,172.01L19.18,172.01L20.18,165.94L20.19,165.94L21.29,159.83L21.3,159.83L22.05,155.12L22.07,155.12L22.81,151.32L22.83,151.32L24.16,144.95L24.17,144.95L25.22,139.74L25.23,139.74L26.2,135.97L26.21,135.97L27.28,130.81L27.3,130.81L29.74,121.26L29.75,121.26L34.86,104.66L34.86,104.55L36.98,99.05L36.98,99.05L36.99,99.05L38.95,94.02L38.95,94.02L38.97,94.02L45.33,80.86L45.34,80.86L48.47,76.26L48.48,76.26L50.51,73.33L50.53,73.33L52.67,70.16L52.67,70.12L54.71,68.02L54.71,67.98L58.3,64.04L58.3,64.01L60.04,61.93L60.04,61.9L69.27,53.58L69.27,53.58L69.29,53.58L85.86,42.85L85.86,42.85L85.87,42.85L91.18,39.99L91.23,39.99L94.69,38.47L94.71,38.47L106.67,33.71L106.67,33.71L106.67,33.69L118.66,29.93L118.66,29.91L136.36,25.81L136.47,25.81L142.87,24.69L142.87,24.67L161.2,21.42L161.31,21.42L168.41,20.26L168.41,20.25L192.33,16.95L192.33,16.95L192.38,16.95L201.32,16.01L201.42,16.01L218.79,14.24L218.79,14.23L245.62,11.91L245.62,11.9L252.72,11.15L252.72,11.14L261.35,10.39L261.35,10.37L359.14,3.48L359.14,3.48L359.32,3.48L381.38,1.89L381.38,1.89L381.4,1.89L410,0" style="vector-effect: none; fill: none; stroke: rgb(0, 0, 255); stroke-opacity: 1; stroke-width: 2px; opacity: 1;"/></g><g class="points"/><g class="text"/></g><g class="trace scatter trace15240e" style="stroke-miterlimit: 2; opacity: 1;"><g class="fills"/><g class="errorbars"/><g class="lines"><path class="js-line" d="M0,347L2.42,338.51L2.42,338.4L4.65,330.03L4.66,330.03L6.06,325.88L6.08,325.88L19.59,282.16L19.61,282.16L23.77,269.15L23.8,269.15L25.2,265.66L25.22,265.66L28.83,254.13L28.84,254.13L31.44,247.21L31.45,247.21L33.96,240.58L33.97,240.58L34.7,238.72L34.7,238.61L35.95,234.94L35.96,234.94L37.48,231.12L37.48,231.12L37.5,231.12L39.73,226L39.75,226L41.17,222.47L41.18,222.47L45.69,211.28L45.7,211.28L61.95,176.6L61.95,176.6L61.97,176.6L63.4,174.08L63.41,174.08L66.21,169.11L66.21,169.09L68.65,164.76L68.65,164.69L70.69,161.14L70.7,161.14L81.27,144.91L81.29,144.91L104.96,116.74L105.01,116.74L118.74,103.92L118.77,103.92L125.84,98.16L125.84,98.15L136.5,90.01L136.54,90.01L138.54,88.76L138.56,88.76L151.13,80.86L151.19,80.86L155.66,78.14L155.66,78.13L169.64,70.33L169.68,70.33L171.6,69.3L171.63,69.3L176.05,67.11L176.1,67.11L180.18,65.4L180.18,65.4L180.2,65.4L183.93,63.7L183.98,63.7L187.56,62.15L187.56,62.13L190.4,60.8L190.4,60.79L197.64,57.5L197.66,57.5L200.89,56.35L200.98,56.35L207.33,53.83L207.33,53.82L222.03,48.16L222.03,48.14L232.38,44.81L232.38,44.8L237.56,43.07L237.56,43.06L241.3,41.92L241.3,41.89L245.06,40.65L245.06,40.63L249.79,39.36L249.79,39.35L260.51,35.91L260.51,35.9L276.74,31.54L276.81,31.54L288.89,28.26L288.98,28.26L314.54,22.1L314.54,22.1L314.68,22.1L349.19,13.64L349.19,13.64L349.25,13.64L352.85,12.64L352.85,12.64L352.9,12.64L357.35,11.65L357.35,11.65L357.39,11.65L406.47,0.8L406.65,0.8L410,0" style="vector-effect: none; fill: none; stroke: rgb(255, 0, 0); stroke-opacity: 1; stroke-width: 2px; opacity: 1;"/></g><g class="points"/><g class="text"/></g><g class="trace scatter trace0e3238" style="stroke-miterlimit: 2; opacity: 1;"><g class="fills"/><g class="errorbars"/><g class="lines"><path class="js-line" d="M0,347L4.73,340.76L4.73,340.73L7.03,337.63L7.03,337.6L22.25,317.51L22.3,317.51L25.17,313.95L25.19,313.95L82.32,238.08L82.36,238.08L85.43,234.2L85.43,234.2L85.44,234.2L88.13,231.23L88.15,231.23L92.09,226.31L92.14,226.31L100.88,216.62L100.88,216.56L104.12,213.21L104.12,213.21L104.12,213.18L105.41,211.55L105.41,211.53L112.87,203.11L112.9,203.11L113.97,201.85L113.99,201.85L115.88,199.62L115.88,199.57L129.54,184.87L129.54,184.87L129.54,184.85L133.64,180.5L133.64,180.5L133.64,180.44L136.19,178.02L136.19,178.02L136.19,178L139.32,174.96L139.32,174.91L141.3,172.86L141.3,172.82L146.17,168.15L146.17,168.12L150.24,164.17L150.24,164.14L154.14,160.47L154.17,160.47L166.02,150.33L166.02,150.33L166.09,150.33L199.56,122.6L199.59,122.6L204.48,118.97L204.48,118.97L204.48,118.94L207.14,117.17L207.14,117.14L210.08,115L210.15,115L215.01,111.85L215.04,111.85L220.94,107.88L220.94,107.88L220.98,107.88L281.52,69.66L281.52,69.66L281.56,69.66L282.73,68.82L282.75,68.82L284.67,67.68L284.67,67.67L288.15,65.73L288.15,65.7L300.96,58.48L300.96,58.47L307.93,54.25L307.93,54.23L315.6,50.3L315.77,50.3L318.14,49.1L318.21,49.1L359.16,27L359.16,26.98L364.27,24.55L364.27,24.51L396.57,7.54L396.57,7.53L410,0" style="vector-effect: none; fill: none; stroke: rgb(0, 128, 0); stroke-opacity: 1; stroke-width: 2px; opacity: 1;"/></g><g class="points"/><g class="text"/></g></g></g><g class="overplot"/><path class="xlines-above crisp" d="M0,0" style="fill: none;"/><path class="ylines-above crisp" d="M0,0" style="fill: none;"/><g class="overlines-above"/><g class="xaxislayer-above"><g class="xtick"><text text-anchor="middle" x="0" y="382" transform="translate(70,0)" style="font-family: 'Open Sans', verdana, arial, sans-serif; font-size: 14px; fill: rgb(42, 63, 95); fill-opacity: 1; white-space: pre; opacity: 1;">0</text></g><g class="xtick"><text text-anchor="middle" x="0" y="382" style="font-family: 'Open Sans', verdana, arial, sans-serif; font-size: 14px; fill: rgb(42, 63, 95); fill-opacity: 1; white-space: pre; opacity: 1;" transform="translate(152,0)">0.2</text></g><g class="xtick"><text text-anchor="middle" x="0" y="382" style="font-family: 'Open Sans', verdana, arial, sans-serif; font-size: 14px; fill: rgb(42, 63, 95); fill-opacity: 1; white-space: pre; opacity: 1;" transform="translate(234,0)">0.4</text></g><g class="xtick"><text text-anchor="middle" x="0" y="382" style="font-family: 'Open Sans', verdana, arial, sans-serif; font-size: 14px; fill: rgb(42, 63, 95); fill-opacity: 1; white-space: pre; opacity: 1;" transform="translate(316,0)">0.6</text></g><g class="xtick"><text text-anchor="middle" x="0" y="382" style="font-family: 'Open Sans', verdana, arial, sans-serif; font-size: 14px; fill: rgb(42, 63, 95); fill-opacity: 1; white-space: pre; opacity: 1;" transform="translate(398,0)">0.8</text></g><g class="xtick"><text text-anchor="middle" x="0" y="382" style="font-family: 'Open Sans', verdana, arial, sans-serif; font-size: 14px; fill: rgb(42, 63, 95); fill-opacity: 1; white-space: pre; opacity: 1;" transform="translate(480,0)">1</text></g></g><g class="yaxislayer-above"><g class="ytick"><text text-anchor="end" x="69" y="4.8999999999999995" transform="translate(0,367)" style="font-family: 'Open Sans', verdana, arial, sans-serif; font-size: 14px; fill: rgb(42, 63, 95); fill-opacity: 1; white-space: pre; opacity: 1;">0</text></g><g class="ytick"><text text-anchor="end" x="69" y="4.8999999999999995" style="font-family: 'Open Sans', verdana, arial, sans-serif; font-size: 14px; fill: rgb(42, 63, 95); fill-opacity: 1; white-space: pre; opacity: 1;" transform="translate(0,297.6)">0.2</text></g><g class="ytick"><text text-anchor="end" x="69" y="4.8999999999999995" style="font-family: 'Open Sans', verdana, arial, sans-serif; font-size: 14px; fill: rgb(42, 63, 95); fill-opacity: 1; white-space: pre; opacity: 1;" transform="translate(0,228.2)">0.4</text></g><g class="ytick"><text text-anchor="end" x="69" y="4.8999999999999995" style="font-family: 'Open Sans', verdana, arial, sans-serif; font-size: 14px; fill: rgb(42, 63, 95); fill-opacity: 1; white-space: pre; opacity: 1;" transform="translate(0,158.8)">0.6</text></g><g class="ytick"><text text-anchor="end" x="69" y="4.8999999999999995" style="font-family: 'Open Sans', verdana, arial, sans-serif; font-size: 14px; fill: rgb(42, 63, 95); fill-opacity: 1; white-space: pre; opacity: 1;" transform="translate(0,89.4)">0.8</text></g><g class="ytick"><text text-anchor="end" x="69" y="4.8999999999999995" style="font-family: 'Open Sans', verdana, arial, sans-serif; font-size: 14px; fill: rgb(42, 63, 95); fill-opacity: 1; white-space: pre; opacity: 1;" transform="translate(0,20)">1</text></g></g><g class="overaxes-above"/></g></g><g class="polarlayer"/><g class="smithlayer"/><g class="ternarylayer"/><g class="geolayer"/><g class="funnelarealayer"/><g class="pielayer"/><g class="iciclelayer"/><g class="treemaplayer"/><g class="sunburstlayer"/><g class="glimages"/><defs id="topdefs-ddcade"><g class="clips"/><clipPath id="legendddcade"><rect width="258" height="53" x="0" y="0"/></clipPath></defs><g class="layer-above"><g class="imagelayer"/><g class="shapelayer"/></g><g class="infolayer"><g class="legend" pointer-events="all" transform="translate(141,435.45000000000005)"><rect class="bg" shape-rendering="crispEdges" width="258" height="53" x="0" y="0" style="stroke: rgb(68, 68, 68); stroke-opacity: 1; fill: rgb(255, 255, 255); fill-opacity: 1; stroke-width: 0px;"/><g class="scrollbox" transform="" clip-path="url(#legendddcade)"><g class="groups"><g class="traces" transform="translate(0,15.6)" style="opacity: 1;"><text class="legendtext" text-anchor="start" x="40" y="5.46" style="font-family: 'Open Sans', verdana, arial, sans-serif; font-size: 14px; fill: rgb(42, 63, 95); fill-opacity: 1; white-space: pre;">Random</text><g class="layers" style="opacity: 1;"><g class="legendfill"/><g class="legendlines"><path class="js-line" d="M5,0h30" style="fill: none; stroke: rgb(255, 165, 0); stroke-opacity: 1; stroke-width: 2px;"/></g><g class="legendsymbols"><g class="legendpoints"/></g></g><rect class="legendtoggle" x="0" y="-10.6" width="100.078125" height="21.2" style="fill: rgb(0, 0, 0); fill-opacity: 0;"/></g><g class="traces" transform="translate(128.71875,15.6)" style="opacity: 1;"><text class="legendtext" text-anchor="start" x="40" y="5.46" style="font-family: 'Open Sans', verdana, arial, sans-serif; font-size: 14px; fill: rgb(42, 63, 95); fill-opacity: 1; white-space: pre;">AUC = 0.90</text><g class="layers" style="opacity: 1;"><g class="legendfill"/><g class="legendlines"><path class="js-line" d="M5,0h30" style="fill: none; stroke: rgb(0, 0, 255); stroke-opacity: 1; stroke-width: 2px;"/></g><g class="legendsymbols"><g class="legendpoints"/></g></g><rect class="legendtoggle" x="0" y="-10.6" width="126.21875" height="21.2" style="fill: rgb(0, 0, 0); fill-opacity: 0;"/></g><g class="traces" transform="translate(0,36.8)" style="opacity: 1;"><text class="legendtext" text-anchor="start" x="40" y="5.46" style="font-family: 'Open Sans', verdana, arial, sans-serif; font-size: 14px; fill: rgb(42, 63, 95); fill-opacity: 1; white-space: pre;">AUC = 0.75</text><g class="layers" style="opacity: 1;"><g class="legendfill"/><g class="legendlines"><path class="js-line" d="M5,0h30" style="fill: none; stroke: rgb(255, 0, 0); stroke-opacity: 1; stroke-width: 2px;"/></g><g class="legendsymbols"><g class="legendpoints"/></g></g><rect class="legendtoggle" x="0" y="-10.6" width="126.21875" height="21.2" style="fill: rgb(0, 0, 0); fill-opacity: 0;"/></g><g class="traces" transform="translate(128.71875,36.8)" style="opacity: 1;"><text class="legendtext" text-anchor="start" x="40" y="5.46" style="font-family: 'Open Sans', verdana, arial, sans-serif; font-size: 14px; fill: rgb(42, 63, 95); fill-opacity: 1; white-space: pre;">AUC = 0.60</text><g class="layers" style="opacity: 1;"><g class="legendfill"/><g class="legendlines"><path class="js-line" d="M5,0h30" style="fill: none; stroke: rgb(0, 128, 0); stroke-opacity: 1; stroke-width: 2px;"/></g><g class="legendsymbols"><g class="legendpoints"/></g></g><rect class="legendtoggle" x="0" y="-10.6" width="126.21875" height="21.2" style="fill: rgb(0, 0, 0); fill-opacity: 0;"/></g></g></g><rect class="scrollbar" rx="20" ry="3" width="0" height="0" x="0" y="0" style="fill: rgb(128, 139, 164); fill-opacity: 1;"/></g><g class="g-gtitle"/><g class="g-xtitle"><text class="xtitle" x="275" y="412.1" text-anchor="middle" style="font-family: 'Open Sans', verdana, arial, sans-serif; font-size: 18px; fill: rgb(42, 63, 95); opacity: 1; font-weight: normal; white-space: pre;">False Positive Rate</text></g><g class="g-ytitle"><text class="ytitle" transform="rotate(-90,18.99375,193.5)" x="18.99375" y="193.5" text-anchor="middle" style="font-family: 'Open Sans', verdana, arial, sans-serif; font-size: 18px; fill: rgb(42, 63, 95); opacity: 1; font-weight: normal; white-space: pre;">True Positive Rate</text></g></g></svg>